# xmcd CD database file
#
# Track frame offsets:
#	150
#	27675
#	63375
#	92400
#	117150
#	140550
#
# Disc length: 2261 seconds
#
# Revision: 0
# Processed by: cddbd v1.5.1PL0 Copyright (c) Steve Scherf et al.
# Submitted via: CDex 1.51
#
DISCID=4f08d306
DTITLE=Oscar Peterson - Exclusively For My Friends Vol. V - Mellow Mood
DYEAR=1968
DGENRE=Jazz
TTITLE0=In A Mellotone
TTITLE1=Nica's Dream
TTITLE2=Green Dolphin Street
TTITLE3=Summertime
TTITLE4=Sometimes I'm Happy
TTITLE5=Who Can I Turn To
EXTD=YEAR: 1968
EXTT0=
EXTT1=
EXTT2=
EXTT3=
EXTT4=
EXTT5=
PLAYORDER=
